<svg width="24" height="24" viewBox="0 0 24 24" fill="none" xmlns="http://www.w3.org/2000/svg">
<path fill-rule="evenodd" clip-rule="evenodd" d="M4.43465 7.15397L12 12.0892L19.5653 7.15397C19.4211 6.69137 18.9815 6.35484 18.4615 6.35484H5.53846C5.0185 6.35484 4.57887 6.69137 4.43465 7.15397ZM19.6154 8.74966L12.384 13.467C12.1515 13.6187 11.8485 13.6187 11.616 13.467L4.38462 8.74966V16.5161C4.38462 17.1397 4.90121 17.6452 5.53846 17.6452H18.4615C19.0988 17.6452 19.6154 17.1397 19.6154 16.5161V8.74966ZM3 7.48387C3 6.11207 4.13651 5 5.53846 5H18.4615C19.8635 5 21 6.11207 21 7.48387V16.5161C21 17.8879 19.8635 19 18.4615 19H5.53846C4.13651 19 3 17.8879 3 16.5161V7.48387Z" fill="white"/>
</svg>
