<?xml version="1.0" encoding="UTF-8"?>
<svg version="1.1" xmlns="http://www.w3.org/2000/svg" width="1564" height="1622">
<path d="M0 0 C6.54028175 3.95350365 13.14241862 7.79191378 19.76953125 11.59765625 C20.8486377 12.21761475 21.92774414 12.83757324 23.03955078 13.47631836 C25.20196262 14.71862737 27.36439733 15.96089659 29.52685547 17.203125 C34.63987539 20.14862642 39.73674051 23.12161993 44.83203125 26.09765625 C46.30555054 26.95822632 46.30555054 26.95822632 47.80883789 27.83618164 C49.78574282 28.99104271 51.76254968 30.14607165 53.73925781 31.30126953 C58.72694082 34.21526465 63.7171183 37.12498193 68.70703125 40.03515625 C70.70704305 41.20180268 72.70704306 42.36846934 74.70703125 43.53515625 C75.69703125 44.11265625 76.68703125 44.69015625 77.70703125 45.28515625 C88.70703125 51.70182292 99.70703125 58.11848958 110.70703125 64.53515625 C111.69662842 65.11241455 112.68622559 65.68967285 113.70581055 66.28442383 C115.70990316 67.45349144 117.7139721 68.62259964 119.71801758 69.79174805 C124.6552092 72.67201021 129.5927828 75.5516129 134.53125 78.4296875 C146.66213253 85.50062973 158.78291335 92.58853804 170.89111328 99.69824219 C176.73830082 103.13044797 182.59102799 106.55202707 188.4609375 109.9453125 C213.23710534 124.2721551 232.72444115 136.98263951 240.70703125 166.03515625 C244.9666767 182.47301881 241.17290133 200.67164979 233.3359375 215.32421875 C230.79652546 219.55048244 227.95773148 223.33296988 224.70703125 227.03515625 C223.83304688 228.05029297 223.83304688 228.05029297 222.94140625 229.0859375 C212.83916833 240.01587979 197.23853971 248.13230982 182.25024414 249.2121582 C153.90392326 249.88790391 136.35322737 239.51132813 112.51054382 225.27075195 C105.28267957 220.95490166 98.00889471 216.72494119 90.70703125 212.53515625 C81.83150571 207.43792106 73.00317534 202.2681691 64.20703125 197.03515625 C54.2719901 191.12582212 44.2905202 185.30436515 34.27001953 179.54125977 C24.04591789 173.66096862 13.85785351 167.72006639 3.67480469 161.76904297 C-2.3029899 158.2765868 -8.28390521 154.78947515 -14.26489258 151.30249023 C-19.42938375 148.29103499 -24.59150887 145.27562952 -29.75 142.25390625 C-30.81412109 141.63128906 -31.87824219 141.00867188 -32.97460938 140.3671875 C-34.98839897 139.1888128 -37.00147896 138.00922413 -39.01367188 136.828125 C-40.85593305 135.75079432 -42.70650121 134.68752475 -44.56567383 133.63964844 C-47.29296875 132.03515625 -47.29296875 132.03515625 -50.04174805 130.09472656 C-52.81241394 128.25663106 -55.08463088 126.91966471 -58.29296875 126.03515625 C-62.630234 127.01668042 -65.85521946 129.2774284 -69.48046875 131.78515625 C-71.5981906 133.13531953 -73.71670263 134.48424408 -75.8359375 135.83203125 C-76.90763184 136.53521484 -77.97932617 137.23839844 -79.08349609 137.96289062 C-84.04909293 141.16903591 -89.16830582 144.09282246 -94.29296875 147.03515625 C-96.29384908 148.20031247 -98.29384758 149.36698432 -100.29296875 150.53515625 C-136.29296875 171.53515625 -136.29296875 171.53515625 -139.29174805 173.28442383 C-141.29584066 174.45349144 -143.2999096 175.62259964 -145.30395508 176.79174805 C-150.2411467 179.67201021 -155.1787203 182.5516129 -160.1171875 185.4296875 C-171.01775919 191.78349667 -181.90973832 198.15170582 -192.79296875 204.53515625 C-204.64288324 211.48560558 -216.50422124 218.41621397 -228.37353516 225.33349609 C-233.34748055 228.23267651 -238.32015045 231.13404317 -243.29296875 234.03515625 C-245.29296285 235.20183303 -247.29296284 236.36849971 -249.29296875 237.53515625 C-250.77796875 238.40140625 -250.77796875 238.40140625 -252.29296875 239.28515625 C-309.29296875 272.53515625 -309.29296875 272.53515625 -312.29174805 274.28442383 C-314.29584066 275.45349144 -316.2999096 276.62259964 -318.30395508 277.79174805 C-323.2411467 280.67201021 -328.1787203 283.5516129 -333.1171875 286.4296875 C-344.01775919 292.78349667 -354.90973832 299.15170582 -365.79296875 305.53515625 C-377.64288324 312.48560558 -389.50422124 319.41621397 -401.37353516 326.33349609 C-407.34667847 329.81508239 -413.31818233 333.29948046 -419.28979492 336.78369141 C-424.31319423 339.71445123 -429.33740512 342.64380185 -434.36328125 345.5703125 C-447.70365409 353.34075797 -461.0118576 361.16384216 -474.29296875 369.03515625 C-471.08013843 371.17704313 -467.95635552 372.24376828 -464.3203125 373.3984375 C-462.86566571 373.87066785 -461.4111638 374.34334468 -459.95678711 374.81640625 C-458.80289993 375.18958984 -458.80289993 375.18958984 -457.6257019 375.5703125 C-420.26400453 387.69559638 -384.56793711 402.75047645 -349.29296875 420.03515625 C-348.22159668 420.55722656 -347.15022461 421.07929688 -346.04638672 421.6171875 C-305.76951769 441.28019349 -267.60813804 464.78980379 -231.29296875 491.03515625 C-230.53177734 491.58381348 -229.77058594 492.1324707 -228.98632812 492.69775391 C-218.3734249 500.36767398 -208.06253064 508.31817491 -197.96923828 516.65869141 C-195.72533563 518.50126687 -193.44775877 520.29977306 -191.16796875 522.09765625 C-182.00150025 529.41231293 -173.18072484 537.16159983 -164.5 545.04296875 C-162.55670874 546.79709006 -160.58937427 548.51488319 -158.60546875 550.22265625 C-146.71259141 560.6521522 -135.48408081 571.74010138 -124.29296875 582.91015625 C-123.6550943 583.5454425 -123.01721985 584.18072876 -122.36001587 584.83526611 C-109.99540716 597.16034971 -109.99540716 597.16034971 -104.72558594 603.35742188 C-102.37998305 606.1043515 -99.88861108 608.71366223 -97.41796875 611.34765625 C-92.95470168 616.14511253 -88.72322446 621.06677998 -84.62109375 626.1796875 C-82.47902213 628.80695991 -80.28200209 631.36872645 -78.05493164 633.92333984 C-71.32754525 641.65119819 -65.09197853 649.6927656 -58.9296875 657.875 C-57.32562906 659.99205088 -55.70380351 662.09396017 -54.07421875 664.19140625 C1.72257059 736.11894064 44.2670876 818.92306348 114.875 1147.4140625 C114.8782275 1149.12263515 114.88159258 1150.83120754 114.88508606 1152.53977966 C114.89101377 1156.09024699 114.89293237 1159.6406902 114.89233398 1163.19116211 C114.89223219 1167.6944722 114.90593157 1172.19762528 114.92310619 1176.70089817 C114.93432768 1180.21950464 114.93625018 1183.73807418 114.93572426 1187.2566967 C114.93688733 1188.91533898 114.94121224 1190.57398275 114.94905663 1192.23260689 C115.05488925 1216.89512395 111.71118918 1237.96357913 94.14453125 1256.6875 C80.22652617 1270.09250169 62.75192674 1276.61834622 43.578125 1276.45263672 C24.88695335 1275.82618303 7.87265373 1268.19410358 -4.95263672 1254.54882812 C-17.57077615 1240.2988346 -22.68405859 1224.81736853 -22.41796875 1206.0703125 C-22.40046611 1203.4908871 -22.38322392 1200.91145992 -22.36621094 1198.33203125 C-22.35395257 1196.97460649 -22.34137528 1195.61718459 -22.32849121 1194.25976562 C-22.26464899 1187.2280079 -22.25164815 1180.19607705 -22.24609375 1173.1640625 C-22.24548195 1172.46450565 -22.24487015 1171.76494881 -22.24423981 1171.04419327 C-22.21550322 1092.42643548 -35.27061946 1014.76178463 -153.67333984 762.22412109 C-155.37142339 759.92912304 -157.04673391 757.61873514 -158.71875 755.3046875 C-166.52313786 744.5403149 -174.72636574 734.20061896 -183.29296875 724.03515625 C-184.29587767 722.83619235 -185.29849505 721.63698451 -186.30078125 720.4375 C-191.82749636 713.84354408 -197.50482982 707.4010586 -203.29296875 701.03515625 C-203.95167969 700.29523437 -204.61039063 699.5553125 -205.2890625 698.79296875 C-210.24482329 693.22827705 -215.31532661 687.77765314 -220.41796875 682.34765625 C-221.42162476 681.27825806 -221.42162476 681.27825806 -222.44555664 680.18725586 C-230.52371414 671.56734746 -230.52371414 671.56734746 -239.23046875 663.59765625 C-242.03873222 661.17897846 -244.69267468 658.67615942 -247.29296875 656.03515625 C-251.12869563 652.1550001 -255.14719885 648.57890016 -259.29296875 645.03515625 C-260.31159456 644.15280145 -261.32979012 643.2699498 -262.34765625 642.38671875 C-277.50365986 629.26807236 -293.15785331 616.92786277 -309.29296875 605.03515625 C-310.46593506 604.16793945 -310.46593506 604.16793945 -311.66259766 603.28320312 C-322.28586844 595.44676962 -333.11898829 588.06182009 -344.29296875 581.03515625 C-345.09041504 580.53016602 -345.88786133 580.02517578 -346.70947266 579.50488281 C-386.73132183 554.19431464 -428.99162694 532.78335874 -473.29296875 516.03515625 C-473.9439856 515.78872375 -474.59500244 515.54229126 -475.26574707 515.28839111 C-506.2015672 503.61921639 -537.88986554 494.31523765 -570.16796875 487.16015625 C-571.30131149 486.9059642 -571.30131149 486.9059642 -572.45755005 486.64663696 C-584.55675955 483.95867863 -596.75650065 481.92022143 -608.98095703 479.90185547 C-610.6651888 479.62264902 -612.34939817 479.3433074 -614.03358459 479.06382751 C-618.11978955 478.38604616 -622.20629266 477.71009086 -626.29296875 477.03515625 C-626.60896108 538.23425145 -626.89516682 599.4334599 -627.02319336 660.63327026 C-627.02509699 661.53920844 -627.02700062 662.44514662 -627.02896194 663.37853747 C-627.07015557 683.06755756 -627.10600641 702.75658399 -627.13635439 722.4456237 C-627.15126979 732.10128338 -627.16736568 741.75694094 -627.18408203 751.41259766 C-627.18654709 752.85386976 -627.18654709 752.85386976 -627.18906195 754.32425847 C-627.24287126 785.46202406 -627.3746129 816.59886653 -627.5468207 847.73618353 C-627.72339208 879.73698382 -627.82123767 911.73708417 -627.82019241 943.73839504 C-627.82008142 948.25948443 -627.8208693 952.78057326 -627.82220459 957.30166245 C-627.82243959 958.19146743 -627.82267459 959.08127242 -627.82291672 959.99804119 C-627.82900882 974.31544338 -627.91795412 988.6311867 -628.03798022 1002.94803712 C-628.15691209 1017.34568917 -628.1883284 1031.74143562 -628.13083202 1046.13948251 C-628.09932433 1054.69284336 -628.13449162 1063.23982623 -628.26594786 1071.79226755 C-628.34723058 1077.5113821 -628.34075552 1083.22613601 -628.26411273 1088.94530132 C-628.2229156 1092.2045498 -628.23213049 1095.44926879 -628.32211995 1098.70788445 C-628.70169555 1110.21986149 -628.70169555 1110.21986149 -625.29296875 1121.03515625 C-619.46861262 1126.97576241 -611.99293078 1130.29930053 -604.46264923 1133.5797684 C-599.179357 1136.00564046 -594.26638441 1139.03760129 -589.29296875 1142.03515625 C-587.29461116 1143.20463393 -585.29479698 1144.37162935 -583.29296875 1145.53515625 C-579.29296875 1147.86848958 -575.29296875 1150.20182292 -571.29296875 1152.53515625 C-569.808573 1153.4010437 -569.808573 1153.4010437 -568.29418945 1154.28442383 C-566.29009684 1155.45349144 -564.2860279 1156.62259964 -562.28198242 1157.79174805 C-557.3447908 1160.67201021 -552.4072172 1163.5516129 -547.46875 1166.4296875 C-535.94806383 1173.14495377 -524.43796402 1179.87798032 -512.93560791 1186.62457275 C-501.7046687 1193.21161977 -490.46157262 1199.77762564 -479.21240234 1206.33349609 C-474.23845695 1209.23267651 -469.26578705 1212.13404317 -464.29296875 1215.03515625 C-462.29297465 1216.20183303 -460.29297466 1217.36849971 -458.29296875 1218.53515625 C-430.29296875 1234.86848958 -402.29296875 1251.20182292 -374.29296875 1267.53515625 C-373.30337158 1268.11241455 -372.31377441 1268.68967285 -371.29418945 1269.28442383 C-369.29009684 1270.45349144 -367.2860279 1271.62259964 -365.28198242 1272.79174805 C-360.3447908 1275.67201021 -355.4072172 1278.5516129 -350.46875 1281.4296875 C-338.94806383 1288.14495377 -327.43796402 1294.87798032 -315.93560791 1301.62457275 C-304.7046687 1308.21161977 -293.46157262 1314.77762564 -282.21240234 1321.33349609 C-277.23845695 1324.23267651 -272.26578705 1327.13404317 -267.29296875 1330.03515625 C-265.29297465 1331.20183303 -263.29297466 1332.36849971 -261.29296875 1333.53515625 C-241.29296875 1345.20182292 -221.29296875 1356.86848958 -201.29296875 1368.53515625 C-199.808573 1369.4010437 -199.808573 1369.4010437 -198.29418945 1370.28442383 C-196.29009684 1371.45349144 -194.2860279 1372.62259964 -192.28198242 1373.79174805 C-187.3447908 1376.67201021 -182.4072172 1379.5516129 -177.46875 1382.4296875 C-165.94806383 1389.14495377 -154.43796402 1395.87798032 -142.93560791 1402.62457275 C-131.7046687 1409.21161977 -120.46157262 1415.77762564 -109.21240234 1422.33349609 C-105.24084677 1424.64841016 -101.26972058 1426.96405008 -97.30078125 1429.28344727 C-95.31082629 1430.4423699 -93.3173722 1431.59530699 -91.3203125 1432.74194336 C-86.05982548 1435.77302286 -80.91266611 1438.90722673 -75.8359375 1442.23828125 C-74.77181641 1442.91503906 -73.70769531 1443.59179688 -72.61132812 1444.2890625 C-70.57415456 1445.58787185 -68.55919763 1446.9224358 -66.57226562 1448.296875 C-63.76769177 1450.05438185 -61.52189885 1451.29728904 -58.29296875 1452.03515625 C-54.05334513 1450.89290031 -50.86657091 1448.5236933 -47.29296875 1446.03515625 C-45.16216549 1444.80603179 -43.01964811 1443.59704083 -40.8671875 1442.40625 C-38.57067447 1441.09665996 -36.2749931 1439.78571733 -33.98046875 1438.47265625 C-33.37247437 1438.12511292 -32.76447998 1437.77756958 -32.13806152 1437.41949463 C-22.27611754 1431.77973758 -12.47555953 1426.04239073 -2.70703125 1420.2421875 C6.05561159 1415.0418677 14.86933555 1409.9285943 23.67480469 1404.80126953 C28.68708938 1401.88187602 33.69694441 1398.95831939 38.70703125 1396.03515625 C40.70701944 1394.86846934 42.70701945 1393.70180268 44.70703125 1392.53515625 C45.69703125 1391.95765625 46.68703125 1391.38015625 47.70703125 1390.78515625 C128.7070313 1343.53515622 128.7070313 1343.53515622 131.70581055 1341.78588867 C133.70990316 1340.61682106 135.7139721 1339.44771286 137.71801758 1338.27856445 C142.6552092 1335.39830229 147.5927828 1332.5186996 152.53125 1329.640625 C163.43182169 1323.28681583 174.32380082 1316.91860668 185.20703125 1310.53515625 C197.05694574 1303.58470692 208.91828374 1296.65409853 220.78759766 1289.73681641 C225.76154305 1286.83763599 230.73421295 1283.93626933 235.70703125 1281.03515625 C237.70702535 1279.86847947 239.70702534 1278.70181279 241.70703125 1277.53515625 C242.69703125 1276.95765625 243.68703125 1276.38015625 244.70703125 1275.78515625 C301.7070312 1242.53515628 301.7070312 1242.53515628 304.70581055 1240.78588867 C306.70990316 1239.61682106 308.7139721 1238.44771286 310.71801758 1237.27856445 C315.6552092 1234.39830229 320.5927828 1231.5186996 325.53125 1228.640625 C336.43182169 1222.28681583 347.32380082 1215.91860668 358.20703125 1209.53515625 C370.05694574 1202.58470692 381.91828374 1195.65409853 393.78759766 1188.73681641 C398.76154305 1185.83763599 403.73421295 1182.93626933 408.70703125 1180.03515625 C410.70702535 1178.86847947 412.70702534 1177.70181279 414.70703125 1176.53515625 C415.69703125 1175.95765625 416.68703125 1175.38015625 417.70703125 1174.78515625 C450.70703125 1155.53515625 450.70703125 1155.53515625 453.70922852 1153.78393555 C455.70197519 1152.62145941 457.69465139 1151.45886246 459.68725586 1150.29614258 C464.79764987 1147.31434786 469.90938673 1144.3348943 475.0234375 1141.359375 C477.10552007 1140.14722356 479.18755208 1138.93498528 481.26953125 1137.72265625 C482.26678223 1137.14241699 483.2640332 1136.56217773 484.29150391 1135.96435547 C490.71134967 1132.22167641 497.10155009 1128.4339008 503.42016602 1124.5222168 C507.49115785 1122.03515625 507.49115785 1122.03515625 509.70703125 1122.03515625 C509.70518766 1121.11100387 509.70334408 1120.18685148 509.70144463 1119.23469448 C509.65694931 1096.69739895 509.62413417 1074.16010915 509.60340691 1051.62277889 C509.59311569 1040.72368237 509.57909675 1029.82461495 509.55615234 1018.92553711 C509.53615229 1009.42051837 509.52329917 999.91552071 509.51885426 990.41048151 C509.51625805 985.38254945 509.51020116 980.3546777 509.49557114 975.32676506 C509.48188247 970.58343256 509.47783116 965.84018456 509.48081589 961.09683418 C509.48027073 959.36640588 509.47636108 957.63597443 509.4686203 955.90556335 C509.37210216 933.19379377 512.38672071 911.38943101 528.6484375 893.96875 C543.19264175 880.30768529 560.77953282 873.05633319 580.70703125 873.03515625 C599.91767209 874.13006324 615.11306513 881.71720975 628.70703125 895.03515625 C629.33480469 895.62683594 629.96257812 896.21851563 630.609375 896.828125 C634.63515113 900.96344606 637.32303197 905.63520923 639.95703125 910.72265625 C640.28654785 911.345354 640.61606445 911.96805176 640.95556641 912.60961914 C647.65390834 926.20331306 647.14382482 940.44267953 647.11108398 955.21240234 C647.11679425 957.54463527 647.12376104 959.87686541 647.13188171 962.20909119 C647.14975572 968.51288712 647.14865553 974.81654342 647.14293933 981.12035704 C647.13944589 987.06504872 647.1474235 993.00971946 647.15429998 998.95440657 C647.16799261 1011.44810598 647.16261021 1023.94174256 647.15111477 1036.4354405 C647.14118597 1047.83472896 647.15412266 1059.23385501 647.17804896 1070.63311844 C647.20250285 1082.37331809 647.21203243 1094.11344231 647.20539623 1105.8536669 C647.20203534 1112.43073836 647.20438406 1119.0076757 647.22164726 1125.58472824 C647.23718023 1131.77206235 647.23309034 1137.95908779 647.21434212 1144.14640999 C647.21067379 1146.4073754 647.21371295 1148.668364 647.22422791 1150.92930794 C647.32216783 1173.74334364 643.47749482 1193.07053391 626.70703125 1210.03515625 C620.14155204 1215.79989384 613.17380014 1220.37399112 605.58203125 1224.66015625 C603.45429998 1225.88128898 601.32669949 1227.10264959 599.19921875 1228.32421875 C598.12124023 1228.93942383 597.04326172 1229.55462891 595.93261719 1230.18847656 C590.83845645 1233.10493371 585.7737829 1236.07142732 580.70703125 1239.03515625 C578.70718491 1240.2020863 576.70718455 1241.36875243 574.70703125 1242.53515625 C573.71703125 1243.11265625 572.72703125 1243.69015625 571.70703125 1244.28515625 C490.7070312 1291.53515628 490.7070312 1291.53515628 487.70825195 1293.28442383 C485.70415934 1294.45349144 483.7000904 1295.62259964 481.69604492 1296.79174805 C476.7588533 1299.67201021 471.8212797 1302.5516129 466.8828125 1305.4296875 C455.98224081 1311.78349667 445.09026168 1318.15170582 434.20703125 1324.53515625 C422.35711676 1331.48560558 410.49577876 1338.41621397 398.62646484 1345.33349609 C393.65251945 1348.23267651 388.67984955 1351.13404317 383.70703125 1354.03515625 C381.70703715 1355.20183303 379.70703716 1356.36849971 377.70703125 1357.53515625 C376.71703125 1358.11265625 375.72703125 1358.69015625 374.70703125 1359.28515625 C269.70703126 1420.53515625 269.70703126 1420.53515625 266.70825195 1422.28442383 C264.70415934 1423.45349144 262.7000904 1424.62259964 260.69604492 1425.79174805 C255.7588533 1428.67201021 250.8212797 1431.5516129 245.8828125 1434.4296875 C234.98224081 1440.78349667 224.09026168 1447.15170582 213.20703125 1453.53515625 C201.35711676 1460.48560558 189.49577876 1467.41621397 177.62646484 1474.33349609 C172.65251945 1477.23267651 167.67984955 1480.13404317 162.70703125 1483.03515625 C160.70703715 1484.20183303 158.70703716 1485.36849971 156.70703125 1486.53515625 C155.71703125 1487.11265625 154.72703125 1487.69015625 153.70703125 1488.28515625 C48.70703126 1549.53515625 48.70703126 1549.53515625 45.70825195 1551.28442383 C43.70415934 1552.45349144 41.7000904 1553.62259964 39.69604492 1554.79174805 C34.7588533 1557.67201021 29.8212797 1560.5516129 24.8828125 1563.4296875 C23.43479248 1564.27382202 23.43479248 1564.27382202 21.95751953 1565.13500977 C20.00165411 1566.27514571 18.04559991 1567.41495787 16.08935547 1568.55444336 C11.07201576 1571.47938476 6.06021496 1574.41332944 1.05845642 1577.36482239 C-1.5455126 1578.90135233 -4.1507926 1580.43565352 -6.75601196 1581.97006226 C-8.01078085 1582.71007368 -9.26485394 1583.45126644 -10.51815796 1584.1937561 C-30.75497803 1596.18200438 -49.40644692 1603.90365167 -73.390625 1599.375 C-88.9431257 1595.32468696 -102.67694549 1585.96241236 -116.328125 1577.79980469 C-121.25592342 1574.86682322 -126.21180064 1571.98235465 -131.16796875 1569.09765625 C-132.16489746 1568.51685303 -133.16182617 1567.9360498 -134.18896484 1567.33764648 C-136.21276724 1566.15864234 -138.2366932 1564.97985029 -140.26074219 1563.80126953 C-145.27302688 1560.88187602 -150.28288191 1557.95831939 -155.29296875 1555.03515625 C-157.29295694 1553.86846934 -159.29295695 1552.70180268 -161.29296875 1551.53515625 C-181.29296875 1539.86848958 -201.29296875 1528.20182292 -221.29296875 1516.53515625 C-222.7773645 1515.6692688 -222.7773645 1515.6692688 -224.29174805 1514.78588867 C-226.29584066 1513.61682106 -228.2999096 1512.44771286 -230.30395508 1511.27856445 C-235.2411467 1508.39830229 -240.1787203 1505.5186996 -245.1171875 1502.640625 C-256.63787367 1495.92535873 -268.14797348 1489.19233218 -279.65032959 1482.44573975 C-290.8812688 1475.85869273 -302.12436488 1469.29268686 -313.37353516 1462.73681641 C-318.34748055 1459.83763599 -323.32015045 1456.93626933 -328.29296875 1454.03515625 C-330.29296285 1452.86847947 -332.29296284 1451.70181279 -334.29296875 1450.53515625 C-370.29296875 1429.53515625 -406.29296875 1408.53515625 -442.29296875 1387.53515625 C-443.28256592 1386.95789795 -444.27216309 1386.38063965 -445.29174805 1385.78588867 C-447.29584066 1384.61682106 -449.2999096 1383.44771286 -451.30395508 1382.27856445 C-456.2411467 1379.39830229 -461.1787203 1376.5186996 -466.1171875 1373.640625 C-477.63787367 1366.92535873 -489.14797348 1360.19233218 -500.65032959 1353.44573975 C-511.8812688 1346.85869273 -523.12436488 1340.29268686 -534.37353516 1333.73681641 C-539.34748055 1330.83763599 -544.32015045 1327.93626933 -549.29296875 1325.03515625 C-551.29296285 1323.86847947 -553.29296284 1322.70181279 -555.29296875 1321.53515625 C-591.29296875 1300.53515625 -627.29296875 1279.53515625 -663.29296875 1258.53515625 C-664.28272705 1257.95781738 -665.27248535 1257.38047852 -666.29223633 1256.78564453 C-668.29474856 1255.61747166 -670.29718983 1254.44917714 -672.29956055 1253.28076172 C-677.26055239 1250.3861445 -682.22270886 1247.49356527 -687.1875 1244.60546875 C-692.15898944 1241.71289116 -697.12523643 1238.81145557 -702.08935547 1235.90625 C-704.32875322 1234.59831338 -706.56964645 1233.29331504 -708.81298828 1231.9921875 C-711.84597678 1230.23293926 -714.87409404 1228.46554238 -717.89950562 1226.69329834 C-719.60797847 1225.69520277 -721.32112324 1224.70511755 -723.03442383 1223.71533203 C-741.9520331 1212.60319118 -755.45874758 1198.64686801 -761.29296875 1177.03515625 C-762.11832644 1173.46648347 -762.41892819 1170.17931955 -762.42176992 1166.5186587 C-762.42504211 1165.41301181 -762.4283143 1164.30736492 -762.43168566 1163.16821358 C-762.43020203 1161.9564219 -762.42871841 1160.74463023 -762.42718983 1159.49611759 C-762.42954206 1158.20124848 -762.43189429 1156.90637937 -762.4343178 1155.57227179 C-762.44072078 1151.96391254 -762.44087918 1148.35557553 -762.44004039 1144.74721168 C-762.44020983 1140.82679219 -762.44611532 1136.9063807 -762.45128125 1132.98596519 C-762.46061225 1125.20381607 -762.46453014 1117.42167263 -762.46680022 1109.63951861 C-762.469761 1100.32051301 -762.47845769 1091.00151496 -762.4872145 1081.68251332 C-762.50806521 1059.15629304 -762.51852975 1036.63007143 -762.5273441 1014.10384375 C-762.53154979 1003.44850917 -762.53677189 992.79317515 -762.54202863 982.13784104 C-762.55991952 945.6678539 -762.57491575 909.19786659 -762.58234882 872.72787571 C-762.58282358 870.43798405 -762.58329947 868.14809239 -762.58377649 865.85820073 C-762.58401286 864.72261309 -762.58424924 863.58702546 -762.58449278 862.41702609 C-762.58569398 856.66351543 -762.58690943 850.91000479 -762.58813477 845.15649414 C-762.58837492 844.0146897 -762.58861507 842.87288525 -762.58886249 841.69648067 C-762.59675565 804.67535147 -762.62018748 767.6542543 -762.65269071 730.63313908 C-762.68698712 691.49818728 -762.7066998 652.36325423 -762.70999306 613.22828716 C-762.71041061 608.93224552 -762.71089017 604.6362039 -762.71141624 600.34016228 C-762.71153944 599.28234543 -762.71166263 598.22452859 -762.71178955 597.13465669 C-762.71412183 580.10964545 -762.72978338 563.08467141 -762.75025809 546.05967343 C-762.77051218 528.94662047 -762.77599536 511.8336122 -762.76648746 494.72054947 C-762.76127087 484.55430113 -762.7671575 474.38820154 -762.78902213 464.2219746 C-762.80252996 457.42775101 -762.80145335 450.63362981 -762.78862017 443.83940519 C-762.78172345 439.97034113 -762.781054 436.10156146 -762.79818026 432.23252279 C-762.81651179 428.05705468 -762.80364386 423.88224394 -762.78795338 419.70676517 C-762.79817558 418.516044 -762.80839779 417.32532282 -762.81892976 416.09851918 C-762.66700503 397.55975936 -755.15084642 380.85467534 -742.08154297 367.83154297 C-736.18986379 362.38866071 -730.16462599 358.23727596 -723.16796875 354.34765625 C-721.04017953 353.13574152 -718.9125807 351.92349245 -716.78515625 350.7109375 C-715.70717773 350.1020166 -714.62919922 349.4930957 -713.51855469 348.86572266 C-708.41555977 345.96969966 -703.35593204 343.00041587 -698.29296875 340.03515625 C-696.29319334 338.86810466 -694.29319281 337.70143874 -692.29296875 336.53515625 C-690.80796875 335.66890625 -690.80796875 335.66890625 -689.29296875 334.78515625 C-560.29296876 259.53515625 -560.29296876 259.53515625 -557.29418945 257.78588867 C-555.29009684 256.61682106 -553.2860279 255.44771286 -551.28198242 254.27856445 C-546.3447908 251.39830229 -541.4072172 248.5186996 -536.46875 245.640625 C-525.56817831 239.28681583 -514.67619918 232.91860668 -503.79296875 226.53515625 C-491.94305426 219.58470692 -480.08171626 212.65409853 -468.21240234 205.73681641 C-463.23845695 202.83763599 -458.26578705 199.93626933 -453.29296875 197.03515625 C-451.29297465 195.86847947 -449.29297466 194.70181279 -447.29296875 193.53515625 C-446.30296875 192.95765625 -445.31296875 192.38015625 -444.29296875 191.78515625 C-315.29296876 116.53515626 -315.29296876 116.53515626 -312.29418945 114.78588867 C-310.29009684 113.61682106 -308.2860279 112.44771286 -306.28198242 111.27856445 C-301.3447908 108.39830229 -296.4072172 105.5186996 -291.46875 102.640625 C-280.56817831 96.28681583 -269.67619918 89.91860668 -258.79296875 83.53515625 C-246.94305426 76.58470692 -235.08171626 69.65409853 -223.21240234 62.73681641 C-218.23845695 59.83763599 -213.26578705 56.93626933 -208.29296875 54.03515625 C-206.29297465 52.86847947 -204.29297466 51.70181279 -202.29296875 50.53515625 C-200.80796875 49.66890625 -200.80796875 49.66890625 -199.29296875 48.78515625 C-180.29296875 37.70182292 -161.29296875 26.61848958 -142.29296875 15.53515625 C-141.30216309 14.95717285 -140.31135742 14.37918945 -139.29052734 13.78369141 C-137.29871263 12.62182653 -135.30685096 11.46004213 -133.31494141 10.29833984 C-127.13572162 6.69438501 -120.95834861 3.08728815 -114.78222656 -0.52197266 C-111.74867837 -2.2927315 -108.71244026 -4.05880142 -105.67578125 -5.82421875 C-102.47009097 -7.68890101 -99.27536188 -9.56852573 -96.09765625 -11.48046875 C-61.5137256 -32.12067262 -31.50776638 -19.0947688 0 0 Z " fill="#EB1DDC" transform="translate(762.29296875,21.96484375)"/>
<path d="M0 0 C1.38856201 0.19335938 1.38856201 0.19335938 2.80517578 0.390625 C61.90733983 8.84637425 118.6035873 33.92654535 162.5546875 74.73828125 C164.6653644 76.6904888 166.81227557 78.57306278 169 80.4375 C176.97312077 87.39971384 184.17816462 94.9259862 190.765625 103.20703125 C193.05473871 106.06842339 195.42850025 108.84240157 197.8125 111.625 C237.49923735 159.39607273 262.90489027 224.24815052 263.203125 286.59765625 C263.21013931 287.58164902 263.21715363 288.56564178 263.22438049 289.57945251 C263.24180106 292.74051535 263.24823345 295.90139091 263.25 299.0625 C263.25101212 300.68128052 263.25101212 300.68128052 263.25204468 302.33276367 C263.23636462 318.09488648 262.87963703 333.45998587 260 349 C259.82307617 349.98677734 259.64615234 350.97355469 259.46386719 351.99023438 C256.85660558 366.22885476 253.39819789 380.20978994 249 394 C248.72881348 394.85174805 248.45762695 395.70349609 248.17822266 396.58105469 C231.04886184 449.18489673 196.38130173 501.48254959 152 535 C150.7187231 536.00742664 149.43889756 537.0167006 148.16015625 538.02734375 C94.85799045 579.85997051 29.46303815 602.51469889 -38.25 602.375 C-39.75052917 602.37418427 -39.75052917 602.37418427 -41.28137207 602.37335205 C-58.82609484 602.32976744 -75.72339269 601.20481315 -93 598 C-94.08442383 597.80164551 -95.16884766 597.60329102 -96.28613281 597.39892578 C-154.56077465 586.29689111 -206.22281085 557.45697607 -249.375 517.3125 C-250.02895752 516.70704346 -250.68291504 516.10158691 -251.35668945 515.4777832 C-255.29749314 511.77289568 -258.92854801 507.90630375 -262.45019531 503.80151367 C-264.30497108 501.64549754 -266.24561269 499.5775481 -268.1875 497.5 C-320.47325287 439.43435949 -344.06386622 359.7853661 -340.86376953 282.71923828 C-337.44478745 221.4196983 -314.90732605 162.20616231 -277 114 C-276.21882813 113.00484375 -275.43765625 112.0096875 -274.6328125 110.984375 C-261.24066161 94.30376001 -246.01560825 78.00120201 -229 65 C-227.71536643 63.98796772 -226.4315783 62.97486177 -225.1484375 61.9609375 C-162.31906393 12.67999165 -79.47087791 -11.36842879 0 0 Z M-149.74609375 177.95703125 C-151.31240845 179.37675844 -152.93252833 180.73842741 -154.58984375 182.05078125 C-182.90631268 204.95178286 -199.80870923 247.06284902 -203.68359375 282.390625 C-207.31828515 328.49218084 -194.26319362 372.185397 -164.5625 407.6875 C-134.4317408 442.78047774 -93.31936227 462.32116157 -47.36328125 465.8515625 C-11.20343189 467.44746758 26.73596447 457.82332195 56 436 C57.051875 435.23042969 58.10375 434.46085937 59.1875 433.66796875 C69.71463403 425.84807876 79.76736182 417.25437013 88 407 C88.76828125 406.05769531 89.5365625 405.11539062 90.328125 404.14453125 C118.0017668 369.61023316 130.48454084 325.95104153 126.0546875 282.00488281 C122.36220122 249.95937688 109.43961399 218.3056735 88 194 C87.2575 193.14792969 86.515 192.29585937 85.75 191.41796875 C83.533094 188.91240312 81.28039996 186.44784192 79 184 C77.95585938 182.87464844 77.95585938 182.87464844 76.890625 181.7265625 C49.48649667 153.22226843 8.07537905 135.74003405 -31.30078125 134.796875 C-75.69782575 134.29749912 -116.81581944 147.36697948 -149.74609375 177.95703125 Z " fill="#DF9BFD" transform="translate(1301,218)"/>
</svg>
