<?xml version="1.0" encoding="UTF-8"?>
<svg version="1.1" xmlns="http://www.w3.org/2000/svg" width="512" height="512">
<path d="M0 0 C1.05832031 0.33902344 2.11664063 0.67804688 3.20703125 1.02734375 C27.09477103 9.47068322 47.25042373 24.25042373 65 42 C65.93392578 42.88171875 65.93392578 42.88171875 66.88671875 43.78125 C89.26847241 65.14344438 106.89224447 97.66690156 109.203125 128.73046875 C109.65643026 152.49121971 94.87387291 168.49486735 79.37109375 184.7578125 C73.25675526 191.0026134 66.83291142 196.56512672 60 202 C58.79234046 202.99505764 57.58672809 203.99260332 56.3828125 204.9921875 C39.13674481 219.27161013 20.73129717 231.75955495 2 244 C1.18982422 244.52948242 0.37964844 245.05896484 -0.45507812 245.60449219 C-22.29706297 259.80084652 -44.99617686 272.79008282 -68 285 C-68.88719727 285.47179687 -69.77439453 285.94359375 -70.68847656 286.4296875 C-77.43217819 290.00570986 -84.20883043 293.51509895 -91 297 C-92.11842285 297.57621094 -93.2368457 298.15242188 -94.38916016 298.74609375 C-129.7632868 316.91422175 -166.29462109 333.59860037 -204.67333984 344.34814453 C-206.6794356 344.91018815 -208.67838413 345.4976293 -210.67578125 346.08984375 C-216.94976646 347.78530426 -223.02948571 348.31397494 -229.5 348.4375 C-230.26675049 348.45997803 -231.03350098 348.48245605 -231.82348633 348.50561523 C-235.54895919 348.48954828 -237.77813429 348.13749836 -240.96875 346.16015625 C-244.91266881 341.96595028 -244.45626251 337.04145168 -244.39453125 331.55859375 C-242.55815314 302.63726069 -228.60554863 273.11248442 -217 247 C-216.43608849 245.72433222 -215.87228992 244.44861451 -215.30859375 243.17285156 C-202.75949042 214.82917963 -189.15107298 187.05011043 -174 160 C-172.95440338 158.11720066 -171.90883106 156.23438783 -170.86328125 154.3515625 C-160.69561093 136.12407829 -149.83168893 118.3550804 -138.625 100.75 C-137.66243286 99.2333374 -137.66243286 99.2333374 -136.68041992 97.68603516 C-132.35659367 90.93825417 -127.7521677 84.45101644 -123 78 C-122.13518185 76.78810069 -121.2738498 75.57369616 -120.41796875 74.35546875 C-114.94325289 66.57964639 -109.2393596 59.03259823 -103.29199219 51.61230469 C-102.09861044 50.12305808 -100.91226371 48.62818138 -99.7265625 47.1328125 C-94.28348848 40.35353259 -88.51572409 33.92335497 -82.53515625 27.61865234 C-81.53126235 26.56015734 -80.53109349 25.49811373 -79.53515625 24.43212891 C-57.23004599 0.63850011 -32.19795015 -10.54700421 0 0 Z " fill="#FF8200" transform="translate(270,164)"/>
<path d="M0 0 C1.59432445 1.25701684 3.17954085 2.52579107 4.75 3.8125 C5.801875 4.575625 6.85375 5.33875 7.9375 6.125 C18.33594575 16.0612926 24.54290314 28.03601412 25.125 42.375 C24.8028804 56.4945758 19.62798527 68.72986972 12.75 80.8125 C12.36537598 81.48845215 11.98075195 82.1644043 11.58447266 82.86083984 C5.88577754 92.7125438 -0.65695165 101.3571143 -8.25 109.8125 C-9.00023437 110.67230469 -9.75046875 111.53210938 -10.5234375 112.41796875 C-19.63919529 122.76780928 -29.28120825 132.42373319 -40.25 140.8125 C-40.78882813 141.22773926 -41.32765625 141.64297852 -41.8828125 142.07080078 C-62.75880862 158.03164371 -62.75880862 158.03164371 -75.25 157.8125 C-84.24686276 154.93350392 -88.92239509 145.8533942 -93.171875 137.99609375 C-110.44203368 104.35831292 -121.84559892 55.96092512 -111.25 18.8125 C-107.09020522 5.87599534 -100.09898695 -3.35498114 -88.25 -10.1875 C-60.09301771 -22.46808859 -24.88975621 -17.84103122 0 0 Z " fill="#42B029" transform="translate(407.25,16.1875)"/>
<path d="M0 0 C1.26819074 1.06198086 2.51893437 2.14519751 3.75 3.25 C4.33265625 3.72953125 4.9153125 4.2090625 5.515625 4.703125 C16.21282931 14.24387479 21.89761179 29.36574445 23.75 43.25 C24.48705765 57.33914055 23.85263781 70.69109485 14.75 82.25 C5.04519392 91.93393553 -8.80215391 94.21073214 -22 94.5 C-46.80362452 93.94880834 -77.56928926 88.42592663 -97.25 72.25 C-100.37038446 68.75880752 -100.90195027 66.38082074 -100.71484375 61.79296875 C-97.4293756 43.81952532 -75.90590108 24.81438524 -62.25 14.25 C-61.52425781 13.64671875 -60.79851562 13.0434375 -60.05078125 12.421875 C-44.23505151 -0.5581324 -19.18530533 -13.9326295 0 0 Z " fill="#42B029" transform="translate(462.25,137.75)"/>
</svg>
