<svg width="24" height="24" viewBox="0 0 24 24" fill="none" xmlns="http://www.w3.org/2000/svg">
<path d="M19.7474 10.3668C19.9633 9.76085 20.0382 9.11883 19.9671 8.48366C19.896 7.84848 19.6805 7.23484 19.3352 6.6838C18.8232 5.85032 18.0412 5.19042 17.1021 4.79933C16.1629 4.40823 15.1151 4.30617 14.1097 4.50785C13.6563 4.03019 13.099 3.64856 12.475 3.38853C11.851 3.12851 11.1748 2.99607 10.4916 3.00009C9.4638 2.99777 8.46175 3.30061 7.62993 3.86496C6.7981 4.42931 6.17951 5.226 5.86331 6.14017C5.19374 6.26829 4.56117 6.52863 4.00796 6.90377C3.45474 7.27892 2.99365 7.76019 2.65553 8.3154C2.1395 9.1466 1.91923 10.1095 2.02648 11.0653C2.13374 12.021 2.56297 12.9202 3.25229 13.6332C3.03646 14.2392 2.96159 14.8812 3.03268 15.5163C3.10378 16.1515 3.31921 16.7651 3.66456 17.3162C4.17655 18.1497 4.95855 18.8095 5.89773 19.2006C6.83691 19.5917 7.88474 19.6938 8.89001 19.4921C9.34345 19.9698 9.90083 20.3514 10.5248 20.6115C11.1488 20.8715 11.825 21.0039 12.5081 20.9999C13.5365 21.0024 14.539 20.6994 15.3712 20.1347C16.2033 19.57 16.822 18.7728 17.138 17.8581C17.8075 17.7299 18.4401 17.4696 18.9933 17.0945C19.5465 16.7193 20.0076 16.238 20.3457 15.6828C20.8611 14.8517 21.0809 13.8891 20.9734 12.9337C20.8659 11.9783 20.4366 11.0795 19.7474 10.3668ZM12.5097 19.8232C11.6655 19.8243 10.8479 19.548 10.1997 19.0425C10.2289 19.0277 10.2802 19.0014 10.3136 18.9822L14.1477 16.912C14.2439 16.8609 14.3239 16.7867 14.3792 16.697C14.4346 16.6074 14.4635 16.5056 14.4628 16.4021V11.3494L16.0834 12.2241C16.0919 12.2281 16.0992 12.2339 16.1047 12.2412C16.1102 12.2484 16.1137 12.2568 16.1149 12.2656V16.45C16.1137 17.3438 15.7336 18.2006 15.0578 18.8328C14.3821 19.4651 13.4657 19.8213 12.5097 19.8232ZM4.75634 16.7279C4.33352 16.045 4.18113 15.2448 4.32585 14.4674C4.35432 14.4834 4.40405 14.5118 4.43974 14.531L8.27386 16.6012C8.36942 16.6534 8.47812 16.6809 8.5888 16.6809C8.69942 16.6809 8.80813 16.6534 8.90369 16.6012L13.5848 14.0746V15.8241C13.5853 15.833 13.5835 15.8419 13.5794 15.85C13.5754 15.8581 13.5693 15.8652 13.5616 15.8705L9.68569 17.9624C8.85665 18.4087 7.87203 18.5294 6.94792 18.2979C6.02379 18.0665 5.23562 17.5018 4.75634 16.7279ZM3.7477 8.90373C4.16868 8.21991 4.83362 7.69638 5.62604 7.42472C5.62604 7.45559 5.62415 7.51026 5.62415 7.5482V11.6886C5.62347 11.792 5.65228 11.8937 5.70758 11.9833C5.76289 12.0729 5.84272 12.147 5.93885 12.1982L10.6199 14.7244L8.99934 15.5991C8.99135 15.604 8.98216 15.607 8.97262 15.6078C8.96309 15.6086 8.95346 15.6072 8.94465 15.6037L5.06839 13.5101C4.24079 13.062 3.63702 12.3256 3.38944 11.4621C3.14187 10.5986 3.2707 9.67859 3.7477 8.90373ZM17.0624 11.8L12.3813 9.2735L14.0019 8.39915C14.0099 8.39424 14.0191 8.39123 14.0287 8.39042C14.0382 8.38961 14.0478 8.39105 14.0566 8.39456L17.9329 10.4864C18.5267 10.8071 19.0106 11.2792 19.3278 11.8476C19.6449 12.416 19.7823 13.0571 19.7238 13.6958C19.6653 14.3345 19.4133 14.9444 18.9974 15.4542C18.5814 15.9639 18.0188 16.3523 17.3752 16.5738C17.3752 16.5426 17.3752 16.488 17.3752 16.45V12.3096C17.3761 12.2064 17.3476 12.1048 17.2927 12.0152C17.2377 11.9257 17.1582 11.8514 17.0624 11.8ZM18.6754 9.53076C18.647 9.51443 18.5972 9.48639 18.5615 9.46727L14.7274 7.39704C14.6318 7.34493 14.5232 7.31744 14.4125 7.31744C14.3019 7.31744 14.1932 7.34493 14.0976 7.39704L9.41653 9.92361V8.17419C9.416 8.16524 9.41783 8.15633 9.42187 8.14823C9.42592 8.14013 9.43203 8.13306 9.43969 8.12771L13.3156 6.03761C13.9094 5.71756 14.5884 5.56219 15.2732 5.58967C15.958 5.61715 16.6202 5.82635 17.1825 6.19279C17.7447 6.55923 18.1837 7.06775 18.4481 7.6589C18.7125 8.25002 18.7914 8.89928 18.6754 9.53076ZM8.53546 12.6489L6.91446 11.7741C6.90599 11.7702 6.89862 11.7643 6.89313 11.7571C6.88765 11.7498 6.88413 11.7414 6.88298 11.7326V7.5482C6.88341 6.90733 7.07915 6.27982 7.44723 5.73913C7.81537 5.19845 8.34063 4.76697 8.96155 4.49519C9.58247 4.22341 10.2733 4.12259 10.9533 4.20452C11.6334 4.28644 12.2743 4.54773 12.8012 4.9578C12.772 4.97271 12.7211 4.99897 12.6873 5.01813L8.85319 7.08833C8.75695 7.13945 8.67709 7.2136 8.62168 7.30317C8.56632 7.39272 8.53748 7.49447 8.5381 7.59788L8.53546 12.6489ZM9.41576 10.8746L11.5006 9.74901L13.5855 10.8739V13.1243L11.5006 14.2492L9.41576 13.1243V10.8746Z" fill="white"/>
</svg>
