<?xml version="1.0" encoding="UTF-8"?>
<svg version="1.1" viewBox="0 0 2048 1536" width="800" height="600" xmlns="http://www.w3.org/2000/svg">
<path transform="translate(0)" d="m0 0h2048v1536h-2048z" fill="#09A37F"/>
<path transform="translate(951,290)" d="m0 0h35l25 3 26 6 18 6 18 8 14 7 19 12 12 9 13 11 17 17 29-4h42l23 3 25 6 23 8 25 12 18 11 15 11 13 11 19 19 11 14 10 14 9 15 8 16 9 21 7 25 4 21 2 17v34l-3 24-6 26-2 9 9 10 13 18 9 15 11 22 9 25 6 24 3 21 1 10v32l-3 24-4 19-8 26-10 23-12 21-14 20-11 13-4 5-8 7-10 10-17 13-15 10-14 8-22 10-21 7-16 4h-3l-2 9-10 23-11 20-8 12-9 12-12 14-17 17-11 9-18 13-19 11-17 8-18 7-22 6-30 5-9 1h-34l-29-4-25-6-20-7-29-14-16-10-12-9-13-11-13-12-5-6-9 1-22 3h-39l-23-3-26-6-25-9-25-12-18-11-17-13-12-11-17-17-11-14-11-16-13-23-10-23-7-23-5-24-3-27v-18l3-27 5-25 3-11v-5l-9-10-12-17-12-20-9-19-11-33-5-25-2-15v-41l5-32 6-22 8-22 8-16 10-18 12-17 8-10 12-13 11-11 11-9 19-14 23-13 21-9 21-7 12-3h4l3-9 6-15 8-16 9-16 12-17 11-13 11-12 14-13 20-15 13-8 16-9 24-10 19-6 23-5z" fill="#ADE0D4"/>
<path transform="translate(1143,577)" d="m0 0 6 2 48 28 26 15 28 16 17 10 26 15 28 16 19 11 17 12 10 9 8 7 10 11 11 15 10 17 8 18 6 19 4 21 1 8v32l-4 24-6 21-9 20-11 19-11 14-11 12-8 8-17 13-15 9-20 10h-4l-1-233-5-10-5-5-10-7-52-30-21-12-24-14-78-45-28-16-22-13v-2l20-11 24-14 28-16z" fill="#09A37F"/>
<path transform="translate(961,353)" d="m0 0h16l18 2 23 5 20 7 20 10 19 13 4 3-1 3-27 15-22 13-52 30-21 12-24 14-45 26-8 6-6 8-3 9-1 25v245l-1 2-5-2-8-5-24-14-26-15-17-10v-236l3-22 6-23 8-19 9-17 12-17 9-10 6-7 8-7 14-11 16-10 16-8 15-6 23-6 13-2z" fill="#09A37F"/>
<path transform="translate(1187,428)" d="m0 0h22l17 2 22 5 22 8 21 11 14 10 11 9 20 20 13 18 11 20 8 21 6 24 2 13v34l-2 13-11-6-16-9-24-14-28-16-17-10-28-16-27-16-46-26-8-3h-12l-11 4-43 25-26 15-28 16-24 14-28 16-19 11-52 30-8 5h-3v-73l1-20 24-14 26-15 23-13 19-11 45-26 26-15 24-14 18-10 20-8 18-5 18-3z" fill="#09A37F"/>
<path transform="translate(1120,879)" d="m0 0h1v93l-16 10-52 30-28 16-43 25-23 13-17 10-21 12-18 8-18 6-12 3-25 3h-16l-26-3-20-5-18-7-16-8-15-9-16-13-12-11-12-14-12-18-10-19-7-19-5-21-2-12-1-22 2-23 2-4 26 15 21 12 48 28 26 15 28 16 17 10 26 15 9 4 4 1h10l11-4 21-12 24-14 49-28 24-14 52-30 24-14 28-16z" fill="#09A37F"/>
<path transform="translate(1166,735)" d="m0 0 5 2 28 16 24 14 22 13 2 5v216l-1 23-4 22-6 20-9 20-8 14-8 11-8 10-12 13-8 7-15 11-13 8-23 11-19 6-24 5h-38l-24-4-20-6-20-9-16-9-15-11 1-3 52-30 28-16 48-28 23-13 24-14 22-13 6-7 4-9 1-5z" fill="#09A37F"/>
<path transform="translate(725,526)" d="m0 0 2 1v225l3 13 6 9 10 7 23 13 24 14 25 14 22 13 52 30 28 16 17 10 23 13 13 8-3 3-23 13-24 14-28 16-2 1-17-9-41-24-52-30-24-14-28-16-26-15-16-10-13-10-14-12-10-11-13-18-10-17-7-16-6-19-4-20-1-8v-33l3-20 5-20 8-20 11-20 10-14 9-10 7-8 11-10 15-11 21-12z" fill="#09A37F"/>
<path transform="translate(1016,650)" d="m0 0h5l20 12 28 16 24 14 26 15 2 2v118l-18 11-26 15-24 14-26 15-7 4-5-1-23-13-17-10-52-30-7-4-1-2v-94l1-24 24-14 21-12 52-30z" fill="#09A37F"/>
</svg>
