<svg width="24" height="24" viewBox="0 0 24 24" fill="none" xmlns="http://www.w3.org/2000/svg">
<path fill-rule="evenodd" clip-rule="evenodd" d="M12.6349 3.02214C12.5462 2.99923 12.4532 2.99382 12.3613 3.00721C12.2414 3.00248 12.121 3.00009 12 3.00009C11.879 3.00009 11.7586 3.00248 11.6387 3.00721C11.5468 2.99382 11.4538 2.99923 11.3651 3.02214C6.69082 3.34787 3 7.24292 3 12C3 16.7571 6.69082 20.6521 11.3652 20.9779C11.4538 21.0008 11.5468 21.0062 11.6387 20.9928C11.7585 20.9975 11.879 20.9999 12 20.9999C12.121 20.9999 12.2415 20.9975 12.3613 20.9928C12.4532 21.0062 12.5462 21.0008 12.6348 20.9779C17.3092 20.6521 21 16.7571 21 12C21 7.24292 17.3092 3.34787 12.6349 3.02214ZM11.928 4.38503C11.952 4.38481 11.976 4.38469 12 4.38469C12.024 4.38469 12.048 4.38481 12.072 4.38503C12.8369 5.68309 13.3988 7.08379 13.7439 8.5385H10.2561C10.6012 7.08379 11.1631 5.68309 11.928 4.38503ZM10.2383 4.58949C8.04415 5.10914 6.21719 6.578 5.21498 8.5385H8.83648C9.13222 7.17031 9.60268 5.84283 10.2383 4.58949ZM8.59881 9.9231H4.67128C4.48454 10.5833 4.38462 11.28 4.38462 12C4.38462 12.72 4.48454 13.4167 4.67128 14.0769H8.59881C8.51109 13.3905 8.46665 12.6968 8.46665 12C8.46665 11.3032 8.51109 10.6095 8.59881 9.9231ZM8.83648 15.4615H5.21498C6.21719 17.422 8.04415 18.8909 10.2383 19.4105C9.60268 18.1572 9.13222 16.8297 8.83648 15.4615ZM11.928 19.615C11.1631 18.3169 10.6012 16.9162 10.2561 15.4615H13.7439C13.3988 16.9162 12.8369 18.3169 12.072 19.615C12.048 19.6152 12.024 19.6153 12 19.6153C11.976 19.6153 11.952 19.6152 11.928 19.615ZM13.7617 19.4105C15.9558 18.8909 17.7828 17.422 18.785 15.4615H15.1635C14.8678 16.8297 14.3973 18.1572 13.7617 19.4105ZM15.4012 14.0769H19.3287C19.5155 13.4167 19.6154 12.72 19.6154 12C19.6154 11.28 19.5155 10.5833 19.3287 9.9231H15.4012C15.4889 10.6095 15.5333 11.3032 15.5333 12C15.5333 12.6968 15.4889 13.3905 15.4012 14.0769ZM14.0043 9.9231H9.99574C9.89988 10.6087 9.85127 11.3026 9.85127 12C9.85127 12.6974 9.89988 13.3913 9.99574 14.0769H14.0043C14.1001 13.3913 14.1487 12.6974 14.1487 12C14.1487 11.3026 14.1001 10.6087 14.0043 9.9231ZM15.1635 8.5385C14.8678 7.17031 14.3973 5.84283 13.7617 4.58949C15.9558 5.10914 17.7828 6.578 18.785 8.5385H15.1635Z" fill="white"/>
</svg>
