<svg width="24" height="24" viewBox="0 0 24 24" fill="none" xmlns="http://www.w3.org/2000/svg">
<path fill-rule="evenodd" clip-rule="evenodd" d="M17.0489 4.20084C17.3193 3.93305 17.7576 3.93305 18.028 4.20084L20.7972 6.9437C21.0676 7.21149 21.0676 7.64566 20.7972 7.91344L18.028 10.6563C17.7576 10.9241 17.3193 10.9241 17.0489 10.6563C16.7786 10.3885 16.7786 9.95434 17.0489 9.68655L18.6363 8.11429H15.3277C14.6965 8.11426 14.0746 8.26507 13.5149 8.55392C12.9552 8.84273 12.4741 9.26102 12.1124 9.77329C12.1124 9.77335 12.1125 9.77322 12.1124 9.77329L11.6417 10.4407C11.1888 11.0823 10.5974 11.6151 9.91143 12.0007C10.5956 12.3857 11.1855 12.9171 11.6377 13.557L12.112 14.2279C12.4737 14.7398 12.9548 15.1578 13.5142 15.4464C14.0737 15.735 14.6951 15.8857 15.3258 15.8857C15.3259 15.8857 15.3258 15.8857 15.3258 15.8857H18.6363L17.0489 14.3134C16.7786 14.0457 16.7786 13.6115 17.0489 13.3437C17.3193 13.0759 17.7576 13.0759 18.028 13.3437L20.7972 16.0866C21.0676 16.3543 21.0676 16.7885 20.7972 17.0563L18.028 19.7992C17.7576 20.0669 17.3193 20.0669 17.0489 19.7992C16.7786 19.5314 16.7786 19.0972 17.0489 18.8294L18.6363 17.2571H15.3258C14.4725 17.2571 13.6316 17.0532 12.8747 16.6628C12.1178 16.2724 11.4671 15.707 10.9777 15.0144L10.5034 14.3435C10.1417 13.8317 9.66063 13.4136 9.10117 13.125C8.54244 12.8368 7.92187 12.6862 7.29195 12.6857C7.29115 12.6857 7.29034 12.6857 7.28954 12.6857C7.28952 12.6857 7.28956 12.6857 7.28954 12.6857H3.69231C3.30996 12.6857 3 12.3787 3 12C3 11.6213 3.30996 11.3143 3.69231 11.3143H7.28954C7.29041 11.3143 7.29133 11.3143 7.2922 11.3143M7.2922 11.3143C7.9232 11.3142 8.54498 11.1633 9.10456 10.8745C9.6641 10.5857 10.1451 10.1674 10.5066 9.65528C10.5067 9.65522 10.5066 9.65535 10.5066 9.65528L10.9774 8.98786C11.4667 8.29467 12.1178 7.72845 12.8751 7.33766C13.6324 6.94686 14.4738 6.74282 15.3277 6.74286C15.3277 6.74286 15.3277 6.74286 15.3277 6.74286H18.6363L17.0489 5.17059C16.7786 4.9028 16.7786 4.46863 17.0489 4.20084" fill="white"/>
</svg>
