<svg width="24" height="24" viewBox="0 0 24 24" fill="none" xmlns="http://www.w3.org/2000/svg">
<path fill-rule="evenodd" clip-rule="evenodd" d="M6.85714 4.54286C5.579 4.54286 4.54286 5.579 4.54286 6.85714V13.2233L7.34023 10.4259L7.35082 10.4156C7.93278 9.85556 8.64839 9.51099 9.42857 9.51099C10.2088 9.51099 10.9244 9.85556 11.5063 10.4156L11.5169 10.4259L14.0571 12.9662L14.5402 12.4831L14.5508 12.4727C15.1328 11.9127 15.8484 11.5681 16.6286 11.5681C17.4087 11.5681 18.1244 11.9127 18.7063 12.4727L18.7169 12.4831L19.4571 13.2233V6.85714C19.4571 5.579 18.421 4.54286 17.1429 4.54286H6.85714ZM21 15.0853V6.85714C21 4.7269 19.2731 3 17.1429 3H6.85714C4.7269 3 3 4.7269 3 6.85714V17.1429C3 19.2731 4.7269 21 6.85714 21H17.1429C19.2731 21 21 19.2731 21 17.1429V15.0861C21 15.0859 21 15.0856 21 15.0853ZM19.4571 15.4052L17.6315 13.5796C17.2771 13.2405 16.9303 13.111 16.6286 13.111C16.3268 13.111 15.9801 13.2405 15.6256 13.5797L15.1481 14.0571L16.6598 15.5688C16.961 15.8701 16.961 16.3585 16.6598 16.6598C16.3585 16.961 15.8701 16.961 15.5688 16.6598L10.4315 11.5225C10.0771 11.1833 9.73029 11.0538 9.42857 11.0538C9.12685 11.0538 8.78007 11.1833 8.42559 11.5225L4.54286 15.4052V17.1429C4.54286 18.421 5.579 19.4571 6.85714 19.4571H17.1429C18.421 19.4571 19.4571 18.421 19.4571 17.1429V15.4052ZM14.3143 7.88571C14.3143 7.45967 14.6597 7.11429 15.0857 7.11429H15.096C15.522 7.11429 15.8674 7.45967 15.8674 7.88571C15.8674 8.31176 15.522 8.65714 15.096 8.65714H15.0857C14.6597 8.65714 14.3143 8.31176 14.3143 7.88571Z" fill="white"/>
</svg>
